<?xml version="1.0" standalone="no"?>
<!DOCTYPE svg PUBLIC "-//W3C//DTD SVG 20010904//EN"
 "http://www.w3.org/TR/2001/REC-SVG-20010904/DTD/svg10.dtd">
<svg version="1.0" xmlns="http://www.w3.org/2000/svg"
 width="1024.000000pt" height="1024.000000pt" viewBox="0 0 1024.000000 1024.000000"
 preserveAspectRatio="xMidYMid meet">
<metadata>
Created by potrace 1.16, written by Peter Selinger 2001-2019
</metadata>
<g transform="translate(0.000000,1024.000000) scale(0.100000,-0.100000)"
fill="#000000" stroke="none">
<path d="M4825 9039 c-290 -23 -593 -84 -900 -180 -137 -43 -175 -58 -375
-146 -350 -155 -640 -338 -925 -584 -136 -117 -403 -390 -471 -480 -10 -14
-51 -68 -90 -120 -215 -286 -368 -562 -498 -900 -110 -289 -178 -567 -216
-893 -14 -116 -14 -634 -1 -756 50 -439 162 -833 341 -1190 139 -277 287 -499
511 -764 154 -182 495 -505 696 -659 232 -177 563 -364 833 -470 390 -154 689
-224 1061 -248 173 -12 186 -14 229 -41 25 -15 67 -31 94 -34 l49 -7 -6 35 -5
35 181 7 c384 15 656 68 1042 203 133 46 438 190 555 262 176 108 234 145 335
218 161 114 197 143 335 268 313 283 558 565 727 835 303 486 477 989 535
1550 17 160 16 640 0 785 -32 275 -94 549 -178 790 -59 166 -82 222 -158 375
-149 301 -305 532 -561 830 -243 283 -639 600 -1004 805 -397 222 -940 398
-1408 456 -192 24 -553 33 -728 18z m465 -259 c347 -20 615 -72 965 -188 206
-69 375 -139 525 -219 301 -161 617 -400 870 -660 166 -170 216 -229 346 -413
232 -326 362 -581 482 -946 107 -326 155 -637 156 -1019 1 -350 -54 -678 -178
-1055 -138 -423 -317 -732 -692 -1196 l-41 -51 -24 126 c-13 69 -25 133 -27
142 -2 9 32 61 75 115 192 241 269 360 392 596 163 314 233 529 303 928 19
108 15 506 -6 690 -20 171 -47 319 -82 450 -37 134 -123 412 -134 432 -5 10
-7 25 -3 34 4 12 3 15 -5 10 -7 -4 -12 -2 -12 3 0 6 -11 34 -24 62 -14 28 -22
58 -19 67 4 15 3 15 -6 2 -6 -8 -11 -12 -11 -8 0 3 -3 14 -7 24 -5 13 -3 15 8
9 8 -5 2 4 -13 20 -16 15 -28 33 -28 39 0 6 -20 46 -45 90 -25 43 -42 83 -38
89 3 5 1 7 -4 4 -14 -9 -86 111 -79 130 3 8 1 11 -4 8 -6 -3 -13 2 -17 12 -4
10 -36 56 -72 103 -36 46 -64 93 -64 103 1 9 -2 15 -8 12 -13 -9 -11 9 4 24
10 11 9 12 -7 4 -15 -8 -25 -3 -57 32 -22 23 -39 47 -39 54 0 6 -4 11 -10 11
-5 0 -10 4 -10 9 0 4 -47 54 -105 111 -57 57 -102 107 -99 112 3 5 2 7 -3 6
-13 -5 -379 301 -376 313 2 5 -3 6 -11 3 -17 -7 -78 45 -69 59 4 6 0 8 -10 4
-11 -4 -17 -1 -17 8 0 7 -5 17 -12 21 -7 4 -8 3 -4 -4 4 -7 3 -12 -3 -12 -15
0 -21 14 -11 30 7 12 11 12 27 0 17 -13 17 -13 2 4 -14 15 -20 16 -38 6 -25
-13 -56 3 -44 24 3 6 3 8 -2 4 -4 -4 -27 9 -49 30 -54 50 -211 143 -312 186
-89 37 -249 81 -339 92 -53 7 -57 9 -30 15 30 8 30 8 -5 7 -43 -2 -82 10 -75
23 4 5 -6 9 -22 9 -22 0 -25 2 -13 10 8 5 12 10 8 10 -4 0 -61 14 -128 31 -67
16 -125 28 -128 25 -3 -4 3 -6 14 -7 11 0 14 -3 6 -6 -7 -3 -25 3 -40 13 -18
12 -47 18 -93 18 -37 1 -62 4 -55 8 6 5 -16 8 -49 7 -33 0 -73 1 -90 2 -58 4
-115 -1 -115 -11 0 -5 13 -7 32 -3 22 4 29 3 24 -5 -4 -7 -1 -12 8 -12 9 0 16
7 16 15 0 8 5 15 11 15 5 0 7 -5 3 -11 -5 -8 3 -10 27 -6 19 3 43 2 54 -3 17
-7 16 -8 -10 -9 -16 0 -46 -2 -65 -5 -19 -2 -98 0 -175 6 -94 7 -197 7 -315 0
-101 -5 -179 -6 -184 -1 -6 5 -19 9 -30 10 -21 0 -21 0 -1 10 15 7 13 8 -10 3
-16 -4 -57 -8 -90 -9 -87 -2 -176 -16 -169 -26 3 -5 -7 -9 -23 -10 -54 0 -118
-11 -124 -21 -3 -5 -14 -6 -25 -3 -16 6 -16 4 4 -14 20 -17 20 -20 5 -20 -10
0 -56 -9 -102 -21 -46 -11 -93 -18 -105 -15 -17 5 -18 4 -6 -4 13 -9 12 -11
-5 -12 -11 -1 -25 -1 -32 0 -6 1 -14 -3 -18 -9 -3 -5 -13 -10 -22 -10 -8 0
-56 -18 -106 -40 -62 -28 -94 -37 -101 -30 -10 10 4 15 28 11 5 -1 17 6 27 15
10 9 22 14 26 11 5 -3 22 3 39 15 l29 20 -35 -6 c-19 -4 -57 -17 -85 -29 -27
-13 -71 -33 -98 -45 -26 -12 -54 -22 -61 -22 -8 0 -17 -7 -20 -16 -5 -12 -14
-14 -34 -10 -20 5 -23 4 -12 -4 12 -8 10 -10 -10 -11 -14 -1 -28 -1 -32 0 -5
0 -8 -3 -8 -9 0 -5 12 -8 28 -5 36 5 103 30 97 36 -9 10 53 26 66 18 12 -7 12
-9 0 -9 -7 0 -41 -13 -75 -29 -34 -17 -74 -32 -89 -35 -55 -10 -71 -17 -56
-27 8 -5 10 -9 4 -9 -5 0 -16 4 -24 9 -11 7 -7 12 15 25 16 8 25 15 21 16 -12
0 -49 -21 -65 -37 -8 -7 -18 -10 -23 -7 -12 7 -51 -25 -44 -37 3 -4 0 -11 -6
-15 -8 -4 -9 -3 -5 4 9 15 3 15 -29 0 -27 -12 -30 -19 -15 -34 8 -8 6 -15 -5
-24 -13 -11 -15 -10 -9 3 4 12 0 15 -20 13 -14 -2 -23 1 -20 6 4 5 -18 -4 -47
-21 -30 -17 -56 -38 -57 -46 -2 -10 -10 -14 -18 -11 -8 3 -14 1 -14 -4 0 -6
-6 -10 -12 -10 -7 0 -30 -13 -51 -29 -29 -22 -34 -30 -22 -35 11 -4 14 -2 9 6
-4 7 -3 8 5 4 6 -4 9 -12 6 -17 -10 -15 7 -10 27 8 10 9 18 11 18 6 0 -6 -11
-18 -25 -27 -14 -9 -25 -12 -25 -7 0 14 -44 22 -55 9 -7 -8 -6 -9 5 -6 18 7
45 -18 30 -27 -6 -3 -10 -1 -10 4 0 6 -5 11 -11 11 -6 0 -9 -6 -7 -12 6 -17
-19 -41 -33 -32 -7 4 -9 3 -5 -4 7 -12 -63 -74 -76 -66 -5 3 -7 2 -6 -3 1 -4
-64 -75 -145 -157 -81 -81 -195 -204 -253 -272 -65 -76 -113 -124 -124 -124
-10 0 -22 -9 -25 -20 -4 -11 -13 -19 -22 -18 -8 2 -24 -9 -35 -23 -17 -22 -18
-29 -7 -53 11 -24 11 -30 -1 -40 -8 -6 -16 -17 -18 -24 -1 -7 -30 -57 -63
-110 -133 -211 -289 -567 -347 -792 -11 -41 -27 -100 -36 -130 -68 -239 -109
-710 -87 -1010 14 -188 29 -279 75 -447 117 -422 316 -820 567 -1129 86 -107
147 -204 159 -254 10 -40 8 -53 -9 -100 -36 -94 -30 -94 -129 5 -83 85 -159
178 -295 369 -32 44 -61 88 -64 96 -4 8 -14 26 -23 40 -24 34 -115 199 -160
290 -97 193 -213 544 -260 789 -70 362 -78 835 -20 1161 37 205 125 504 206
703 49 119 175 376 231 471 202 341 454 636 779 913 177 151 456 335 663 437
396 196 926 335 1386 365 175 12 202 12 395 1z m-448 -404 c32 -9 95 -30 140
-47 151 -58 254 -191 344 -444 15 -42 29 -73 32 -71 10 10 -42 154 -88 245
-70 138 -89 165 -166 243 -70 72 -65 73 36 12 35 -22 87 -41 140 -53 l85 -18
80 43 c49 26 119 53 182 68 121 31 130 31 80 5 -34 -18 -111 -108 -101 -118 2
-2 21 7 41 21 54 35 87 45 247 72 108 19 192 26 356 30 118 2 206 2 195 -1
-144 -38 -413 -116 -428 -124 -34 -19 -12 -20 68 -3 58 12 117 15 234 12 139
-3 161 -6 199 -27 48 -24 122 -89 153 -132 l19 -27 -68 4 -67 4 55 -13 c54
-13 100 -33 100 -43 0 -3 -10 -3 -22 1 -14 3 -9 -2 11 -13 32 -18 33 -20 13
-26 -12 -4 -34 0 -53 9 -51 27 -23 -2 54 -54 40 -27 103 -77 141 -111 37 -34
120 -97 182 -142 104 -73 199 -162 225 -209 15 -30 3 -23 -48 27 -60 58 -85
70 -203 105 -52 15 -115 35 -140 43 l-45 16 25 -22 c38 -32 117 -65 200 -84
83 -18 129 -38 147 -64 7 -10 64 -50 127 -89 92 -58 137 -95 225 -187 61 -62
111 -119 111 -125 0 -6 -30 16 -67 49 -38 32 -83 69 -101 81 -31 22 -34 22
-46 6 -11 -16 -23 -17 -82 -12 -67 5 -215 52 -261 83 -12 8 -26 14 -30 14 -23
-1 179 -117 287 -165 190 -85 233 -123 312 -278 28 -56 30 -67 25 -133 -5 -70
-5 -72 34 -130 22 -33 49 -90 60 -127 20 -63 21 -86 16 -265 -3 -137 -11 -236
-27 -327 -23 -137 -24 -318 -1 -377 9 -24 8 -28 -7 -28 -30 0 -61 29 -88 81
-26 51 -92 149 -101 149 -2 0 5 -16 17 -35 l21 -34 -40 -123 c-81 -244 -192
-654 -215 -788 -15 -89 -37 -311 -38 -383 -1 -89 -17 -86 -19 3 -1 40 -3 48
-8 30 -6 -19 -9 -11 -15 40 -9 87 7 244 44 430 29 145 37 215 20 160 -8 -25
-8 -25 -10 5 -1 25 -3 27 -9 11 -7 -18 -8 -18 -14 5 -4 13 -6 47 -6 74 1 44 2
46 9 20 5 -18 7 19 6 93 -1 67 -1 122 0 122 4 0 33 -143 37 -180 3 -24 4 -17
5 21 1 30 -3 104 -9 163 -6 59 -9 110 -6 112 2 2 12 -26 22 -63 10 -38 22 -72
26 -78 6 -5 7 58 4 150 -5 170 -1 169 33 -5 l11 -55 -5 50 c-2 28 -6 97 -9
155 -5 113 1 102 29 -60 9 -50 14 -63 15 -40 0 19 -6 62 -14 95 -8 33 -14 77
-15 98 0 53 24 48 46 -10 19 -54 41 -84 30 -43 -14 53 -28 197 -23 238 7 68
23 73 47 18 11 -26 40 -73 65 -105 24 -31 56 -79 70 -106 14 -28 25 -42 25
-32 0 23 -34 90 -76 149 -74 104 -86 158 -67 294 l6 49 14 -60 c14 -62 63
-199 69 -193 1 2 -10 43 -26 91 -17 48 -33 105 -36 127 -4 22 -10 40 -14 40
-4 0 -8 23 -9 50 -1 28 3 50 8 50 15 0 50 -63 76 -137 13 -37 24 -60 24 -51 2
32 -58 203 -84 241 l-26 37 23 0 c18 0 31 -14 56 -61 19 -33 36 -59 38 -56 2
2 -9 33 -25 68 -17 35 -33 87 -35 114 l-6 50 47 -87 c26 -48 49 -86 50 -84 2
2 -12 37 -31 79 -53 116 -60 145 -43 192 8 22 19 39 24 38 16 -3 -8 140 -32
188 -28 54 -185 207 -300 291 -82 61 -221 136 -231 125 -3 -3 18 -18 48 -32
86 -44 201 -131 264 -202 91 -102 113 -140 75 -130 -17 4 -18 0 -15 -39 3 -24
9 -55 14 -69 5 -14 8 -25 6 -25 -2 0 2 -24 10 -52 7 -29 14 -64 14 -78 0 -20
-6 -14 -33 32 -17 31 -47 73 -65 95 -40 46 -33 30 25 -55 23 -34 48 -81 54
-105 34 -122 29 -141 -16 -54 -15 28 -32 57 -37 62 -6 6 1 -13 15 -41 34 -67
42 -194 12 -194 -12 0 -100 93 -279 295 l-27 30 25 -52 c14 -29 49 -74 78
-100 28 -26 79 -76 112 -111 33 -34 71 -65 83 -68 13 -4 23 -8 23 -11 0 -3
-15 -55 -34 -117 -18 -61 -39 -138 -46 -170 l-12 -60 -36 143 c-20 79 -38 139
-40 133 -1 -5 6 -45 18 -88 42 -162 43 -191 11 -285 -16 -46 -30 -75 -31 -64
0 11 -21 -43 -46 -120 -55 -169 -108 -420 -129 -604 -9 -75 -22 -176 -30 -226
-8 -49 -16 -101 -18 -115 -12 -74 -4 113 9 210 9 63 24 178 34 255 26 199 30
222 46 294 8 35 12 66 10 68 -10 11 -69 -302 -82 -437 -3 -41 -11 -83 -16 -93
-12 -24 -27 -175 -29 -303 -3 -198 -27 -143 -30 71 -2 65 -5 27 -10 -110 -5
-115 -13 -246 -18 -290 -15 -133 -2 571 14 740 8 83 17 184 21 225 7 84 14
103 26 74 6 -13 7 -8 4 18 -3 21 0 40 5 43 5 4 9 -3 9 -14 0 -12 5 -21 11 -21
6 0 8 9 5 20 -3 11 -8 30 -11 43 -6 21 -5 21 10 -3 l16 -25 -5 25 c-3 14 -1
32 4 40 7 11 10 -1 11 -40 1 -77 68 447 69 539 0 61 -7 96 -39 190 -37 108
-99 256 -85 202 4 -14 8 -79 10 -145 1 -67 9 -146 18 -176 l14 -55 1 45 c0 25
-6 72 -14 105 -16 66 -20 145 -7 145 9 0 42 -156 44 -215 1 -22 1 -65 -1 -95
l-3 -55 -18 41 c-11 22 -29 83 -40 134 -23 104 -30 120 -30 70 0 -65 -20 -15
-39 97 -22 127 -39 189 -56 203 -9 7 -8 -4 2 -42 13 -53 31 -368 20 -368 -3 0
-11 32 -17 70 -6 39 -15 70 -18 70 -4 0 -8 15 -9 34 -2 19 -7 44 -13 57 -8 19
-8 13 -4 -26 3 -27 9 -61 14 -75 5 -14 11 -43 14 -65 l6 -40 -24 45 c-13 25
-32 74 -41 110 -10 36 -32 94 -48 130 -33 69 -119 170 -146 169 -11 0 -9 -5 9
-17 37 -25 78 -72 97 -112 17 -36 55 -201 48 -208 -2 -2 -11 11 -19 29 -25 56
-156 209 -235 274 -41 33 -77 67 -79 75 -3 8 14 -2 36 -21 23 -20 65 -48 94
-64 29 -15 73 -46 98 -69 39 -36 33 -24 -15 29 -5 6 -44 36 -85 65 -141 102
-211 162 -247 211 -20 28 -37 48 -40 46 -7 -8 29 -91 51 -116 16 -19 10 -17
-27 10 -84 60 -87 62 -87 51 0 -6 6 -17 13 -24 40 -43 35 -47 -11 -9 -52 43
-82 85 -82 116 0 8 -4 15 -9 15 -18 0 20 -88 56 -129 19 -23 62 -55 94 -72 33
-16 59 -31 59 -33 0 -3 -16 0 -36 6 -20 5 -38 7 -41 5 -2 -3 16 -25 40 -50 25
-25 53 -59 61 -76 18 -34 16 -39 -8 -15 -15 14 -16 14 -16 -1 0 -13 -3 -13
-22 5 -28 26 -33 19 -14 -18 8 -16 17 -53 21 -83 l5 -54 -18 61 c-23 77 -82
150 -138 171 -18 6 -18 6 -1 -14 9 -11 17 -23 17 -28 0 -4 11 -23 26 -42 14
-18 21 -33 15 -33 -5 0 -13 5 -16 10 -4 6 -25 22 -47 36 -22 14 -60 44 -84 66
-73 67 -59 37 17 -37 106 -103 101 -86 124 -405 5 -78 5 -83 -9 -60 -26 45
-46 146 -46 228 0 88 -11 132 -34 132 -9 0 -21 10 -27 22 -12 22 -12 22 15 5
19 -13 26 -14 26 -4 0 7 -26 28 -57 47 -107 62 -122 75 -150 125 -31 58 -44
46 -14 -14 29 -55 70 -100 130 -141 49 -33 51 -37 51 -80 0 -43 -22 -156 -32
-166 -3 -3 -3 26 -1 63 3 37 1 83 -3 101 -7 25 -9 14 -10 -51 0 -57 -6 -95
-17 -119 -9 -20 -17 -56 -18 -80 0 -23 -5 -58 -11 -76 -12 -41 -8 -46 26 -31
25 12 30 10 59 -20 32 -33 32 -33 7 -28 -16 4 -37 -1 -56 -12 -43 -26 -104
-103 -104 -131 0 -19 5 -15 31 23 70 106 122 133 164 87 18 -20 17 -20 -13
-20 -18 0 -32 -4 -32 -10 0 -5 17 -10 38 -10 26 0 45 -7 57 -20 18 -20 17 -20
-11 -20 -16 -1 -42 -7 -59 -15 -29 -13 -29 -13 31 -14 48 -1 67 -6 94 -26 19
-14 38 -32 43 -40 7 -13 4 -13 -20 -4 -34 13 -103 2 -103 -16 0 -11 6 -12 28
-4 36 12 98 -13 189 -76 34 -24 63 -41 63 -37 0 4 -27 36 -60 71 -75 81 -100
143 -99 244 2 123 14 134 27 26 11 -92 53 -231 60 -199 1 9 -4 56 -12 105 -12
76 -12 87 0 70 8 -10 14 -27 14 -37 0 -21 29 -82 36 -75 2 2 -3 20 -11 40 -22
54 -19 55 28 11 23 -22 53 -49 67 -59 20 -17 19 -14 -7 20 -17 22 -45 53 -62
69 -17 17 -31 35 -31 40 0 6 10 -1 21 -16 11 -16 25 -28 31 -28 7 0 5 7 -3 18
-31 39 -39 66 -8 29 35 -42 116 -107 132 -107 6 0 -7 13 -29 29 -38 28 -104
102 -104 117 0 4 12 -3 28 -17 47 -42 92 -70 103 -64 5 4 18 1 27 -6 9 -6 -5
10 -33 37 -27 27 -61 57 -75 66 -23 15 -20 15 55 2 122 -21 164 -40 182 -81 8
-20 12 -42 9 -49 -3 -8 -1 -14 4 -14 6 0 10 -7 10 -15 0 -8 -5 -15 -10 -15 -6
0 -1 -18 10 -41 15 -29 18 -44 11 -53 -7 -9 -6 -19 6 -35 15 -22 15 -23 -6
-12 l-21 12 20 -34 c11 -18 22 -56 25 -83 l5 -49 -15 32 c-17 36 -35 51 -35
29 0 -8 11 -50 25 -93 14 -43 25 -91 24 -108 0 -26 -3 -22 -21 25 -24 62 -58
122 -58 102 0 -7 7 -26 15 -42 8 -16 22 -60 31 -97 18 -81 44 -155 80 -224 14
-28 24 -53 21 -55 -7 -7 -98 125 -121 178 -12 29 -28 64 -34 78 -10 23 -11 23
-11 -15 -1 -56 39 -162 94 -251 54 -86 75 -147 64 -184 -5 -18 -7 -20 -8 -7
-1 21 -63 148 -88 181 -14 20 -15 20 -8 1 23 -59 84 -247 95 -295 7 -30 17
-65 23 -77 5 -12 6 -30 2 -40 -5 -14 -10 -6 -20 32 -8 28 -39 126 -69 218 -31
92 -56 174 -56 183 0 17 -38 94 -46 94 -3 0 -3 -8 1 -17 4 -10 9 -29 11 -42 3
-12 34 -109 69 -215 35 -105 71 -231 80 -281 9 -49 21 -100 25 -111 5 -12 7
-33 4 -45 -4 -22 -3 -22 5 -4 5 11 7 31 4 45 -3 14 -3 22 1 19 4 -4 10 -29 12
-55 8 -67 14 -68 15 -3 l2 54 7 -50 c5 -27 9 -104 9 -170 1 -66 5 -138 9 -160
l7 -40 6 50 6 50 1 -50 c2 -64 25 -152 56 -213 13 -26 21 -53 18 -61 -3 -8 0
-11 6 -7 12 7 42 -47 42 -76 0 -11 4 -16 10 -13 13 8 54 -81 44 -96 -4 -7 -3
-9 3 -6 29 18 52 -232 29 -308 l-10 -30 -7 40 c-5 23 -5 10 -1 -30 10 -116 7
-187 -12 -247 -21 -65 -55 -102 -111 -121 -48 -17 -49 -37 -6 -107 15 -25 34
-56 42 -70 8 -13 20 -30 27 -38 6 -7 12 -18 12 -24 0 -6 -24 16 -54 48 -30 33
-57 56 -61 53 -3 -4 -10 -55 -15 -115 -5 -60 -18 -136 -29 -169 -11 -34 -24
-110 -29 -175 l-9 -115 -53 -47 c-30 -26 -55 -46 -57 -44 -3 2 3 27 11 56 8
28 18 93 20 143 3 51 3 81 0 67 -3 -14 -17 -63 -30 -110 -24 -81 -29 -89 -98
-156 -55 -53 -98 -84 -175 -123 -57 -29 -105 -51 -107 -48 -5 5 9 129 22 207
5 30 8 32 14 15 6 -13 9 5 11 55 3 96 3 82 -4 175 -3 47 -2 68 3 50 l8 -30 2
30 c3 49 38 -150 46 -265 11 -160 23 -173 22 -25 -1 72 3 162 7 200 l8 70 22
-120 c28 -147 49 -223 59 -207 4 7 -4 47 -18 90 -13 42 -30 123 -36 179 -6 56
-20 134 -31 173 -11 40 -17 82 -14 94 5 17 4 18 -4 6 -6 -8 -11 -13 -12 -10 0
3 -2 14 -4 24 -2 11 0 26 4 34 9 16 61 -93 86 -181 30 -105 29 -73 -5 172 -7
48 -6 68 4 83 12 16 16 7 36 -79 28 -126 28 -125 29 -78 0 22 -8 77 -18 123
-13 54 -16 92 -11 110 l8 27 1 -27 c1 -14 6 -28 12 -30 5 -2 20 -53 32 -113
22 -109 22 -109 25 -55 2 38 -7 93 -29 175 -64 245 -65 245 -49 255 8 5 17 7
21 4 21 -13 106 -252 125 -349 5 -30 9 -34 16 -21 6 11 4 53 -5 119 -9 56 -13
106 -10 111 4 5 1 6 -5 2 -7 -4 -10 4 -10 23 1 28 18 35 18 8 0 -7 7 -25 16
-42 9 -16 25 -50 35 -75 l18 -45 1 43 c0 35 -30 188 -56 287 -5 19 -4 19 7 1
7 -12 14 -15 18 -8 4 6 24 -44 46 -111 21 -67 40 -115 42 -107 2 9 -10 94 -26
190 -23 132 -27 176 -18 182 8 5 7 8 -4 8 -12 0 -15 7 -11 25 2 14 7 23 11 20
6 -6 38 -115 67 -225 l14 -55 -5 70 c-2 39 -16 117 -30 175 -14 58 -28 121
-30 140 -2 19 -7 46 -11 60 -15 64 18 -13 47 -105 17 -55 36 -116 44 -135 7
-19 19 -62 26 -95 l13 -60 7 70 c8 81 4 124 -21 215 -24 86 -31 130 -21 130 8
0 43 -112 56 -180 12 -60 26 -70 23 -18 -1 26 1 50 5 54 4 4 8 -10 8 -32 1
-21 5 -52 10 -69 5 -18 7 28 5 120 -2 113 -7 160 -19 189 -9 21 -14 43 -10 49
3 5 2 7 -3 4 -6 -3 -10 9 -10 29 0 19 3 31 7 27 9 -11 66 -163 72 -193 4 -22
4 -21 6 6 2 51 -43 190 -102 314 -78 164 -103 253 -153 540 -28 166 -74 331
-128 465 -29 71 -59 148 -66 170 -6 22 -27 76 -45 120 -18 44 -43 108 -55 142
-25 70 -107 176 -172 223 -32 23 -51 30 -87 29 -42 0 -44 -1 -21 -12 14 -6 45
-20 69 -31 71 -32 157 -161 185 -281 7 -28 4 -26 -53 28 -70 67 -102 77 -41
13 61 -64 87 -107 137 -224 62 -148 111 -291 134 -396 28 -130 25 -139 -21
-68 -41 65 -63 86 -30 30 35 -61 110 -238 130 -309 10 -39 22 -98 25 -132 l6
-62 -35 65 c-65 116 -89 120 -35 7 41 -90 61 -208 53 -320 -4 -48 -11 -90 -16
-93 -5 -3 -6 6 -2 20 9 36 -23 170 -45 190 -18 16 -18 15 -5 -34 24 -94 28
-167 11 -223 -9 -29 -21 -72 -28 -97 l-13 -45 -7 55 c-7 59 -30 123 -48 134
-15 10 -13 -4 4 -34 15 -27 18 -128 6 -215 l-7 -50 -13 92 c-7 51 -16 95 -19
97 -4 2 -7 -42 -7 -97 0 -104 -11 -151 -54 -235 -23 -46 -40 -61 -112 -100
-88 -47 -110 -64 -130 -97 l-19 -30 0 43 c0 30 -4 42 -14 42 -8 0 -18 -5 -21
-11 -10 -16 -50 -28 -73 -22 -11 2 -33 28 -48 56 -28 50 -28 57 -29 199 0 80
2 144 5 141 12 -12 25 116 17 176 -4 35 -6 73 -4 85 3 20 4 20 15 -4 l11 -25
0 28 c1 15 -3 35 -8 45 -5 9 -19 62 -31 117 -12 55 -31 122 -41 149 -25 66
-17 70 10 5 20 -46 34 -97 62 -227 5 -24 11 -48 15 -54 8 -13 6 -399 -2 -455
-6 -42 16 -161 36 -193 13 -21 81 56 78 88 -5 37 -22 28 -38 -22 -8 -25 -18
-46 -22 -46 -4 0 -15 25 -24 56 -14 49 -15 69 -4 148 12 90 9 288 -5 334 -6
17 -4 21 7 17 9 -4 20 -34 28 -77 8 -39 16 -66 18 -58 6 17 -19 192 -29 205
-4 6 -12 37 -18 70 -6 33 -15 83 -20 110 -4 28 -16 67 -25 88 -26 58 -11 44
31 -31 20 -37 45 -75 54 -86 10 -10 29 -41 44 -70 l27 -51 -7 44 c-5 40 -104
234 -144 286 -14 18 -14 18 0 8 15 -12 62 -80 115 -165 16 -26 33 -47 37 -48
14 0 -3 41 -44 112 -42 72 -48 88 -23 67 24 -20 67 -85 115 -176 23 -45 44
-81 46 -79 2 1 -9 36 -24 77 -25 71 -99 199 -122 213 -6 4 -16 17 -22 29 -7
11 27 -15 76 -58 48 -44 91 -88 97 -98 5 -10 12 -16 15 -14 5 5 -17 39 -93
142 l-37 50 56 -52 c31 -29 59 -53 63 -53 3 0 -20 30 -52 67 -32 36 -49 61
-38 55 11 -6 37 -29 57 -51 43 -48 50 -51 36 -15 -8 24 -8 25 6 14 32 -27 13
4 -37 58 -49 52 -45 56 9 8 24 -20 40 -17 29 6 -3 7 -15 27 -25 43 -24 37 -26
52 -6 35 13 -11 14 -10 9 5 -6 13 2 11 35 -10 62 -42 60 -23 -3 26 -30 24 -54
44 -53 46 2 1 27 -6 55 -17 29 -11 62 -20 75 -20 15 1 10 5 -17 15 -41 14 -95
60 -84 71 4 3 32 -3 63 -15 79 -30 90 -25 23 9 -31 16 -60 35 -64 41 -4 6 -3
10 2 7 97 -47 119 -46 44 2 -27 18 -50 33 -50 35 0 1 33 -4 73 -11 93 -18 102
-17 47 5 -74 29 -111 56 -98 69 7 7 22 12 35 12 37 0 27 18 -14 27 -21 4 -41
6 -45 5 -5 -1 -8 5 -8 13 0 11 12 15 45 15 25 0 45 5 45 10 0 6 -6 10 -14 10
-8 0 -18 5 -22 11 -4 8 1 9 16 4 30 -9 22 15 -9 31 -39 20 -45 31 -22 44 28
14 19 29 -14 22 -21 -3 -24 -1 -19 12 5 12 0 19 -14 23 -31 8 -33 27 -6 66 34
51 30 54 -17 13 -43 -36 -67 -39 -49 -6 15 29 12 35 -9 16 -15 -14 -20 -14
-30 -2 -9 11 -8 14 6 12 10 0 19 7 21 18 3 16 0 18 -27 13 -16 -4 -33 -2 -36
3 -3 6 2 10 12 10 12 0 31 20 51 53 37 61 41 78 12 52 -11 -10 -20 -24 -20
-30 0 -21 -40 -65 -59 -65 -9 0 -26 7 -37 16 -18 15 -18 15 8 11 20 -3 34 3
50 21 23 24 23 25 1 13 -12 -6 -32 -11 -45 -11 -13 0 -29 -5 -36 -12 -9 -9
-16 -8 -30 5 -10 9 -27 17 -37 17 -15 0 -16 3 -7 12 9 9 15 9 24 0 25 -25 72
-14 113 28 21 22 35 43 31 47 -3 4 -25 -12 -48 -35 -37 -38 -58 -51 -58 -36 0
7 21 45 68 127 19 32 32 60 29 63 -2 3 -24 -24 -47 -59 -52 -77 -69 -89 -137
-97 -42 -5 -50 -3 -41 7 6 7 16 13 24 13 19 0 82 58 100 91 32 62 6 67 -36 6
-31 -43 -125 -115 -136 -104 -4 3 3 18 15 33 11 15 21 33 21 42 0 8 -16 -6
-36 -32 -55 -72 -53 -47 2 34 80 116 89 133 73 128 -8 -2 -27 -29 -44 -59 -33
-60 -102 -149 -116 -149 -16 0 -10 31 31 151 37 111 49 161 33 146 -3 -4 -25
-66 -48 -137 -40 -126 -54 -158 -56 -129 0 8 -4 6 -9 -6 -8 -19 -9 -19 -9 2
-1 12 4 25 9 28 14 9 12 42 -5 78 -8 18 -16 50 -18 72 -3 29 -4 23 -5 -22 -2
-75 -18 -154 -37 -179 -12 -17 -14 -15 -26 26 -7 25 -12 49 -11 53 4 15 -18
90 -51 176 -46 121 -45 77 1 -57 21 -62 37 -112 35 -112 -1 0 -23 39 -47 88
-25 48 -45 81 -45 73 -1 -7 8 -29 20 -47 12 -20 16 -34 9 -34 -6 0 -8 -5 -5
-10 4 -6 11 -7 17 -4 7 4 8 2 4 -5 -4 -6 6 -33 23 -60 32 -49 38 -71 21 -71
-15 0 -180 192 -212 248 -29 51 -45 69 -30 35 34 -80 73 -142 128 -205 35 -40
64 -76 64 -80 0 -10 -128 87 -178 135 -24 23 -59 66 -78 95 -19 28 -37 52 -40
52 -3 0 10 -28 27 -61 25 -46 54 -79 115 -130 46 -38 86 -74 89 -80 15 -24 -5
-17 -56 20 -62 44 -104 61 -97 40 2 -8 41 -34 86 -58 45 -24 82 -50 82 -57 0
-15 -35 -5 -120 35 -25 11 -55 21 -68 21 -25 0 -80 33 -131 80 -39 35 -50 33
-26 -4 29 -44 219 -156 265 -156 31 0 24 -12 -24 -43 -116 -73 -179 -76 -298
-14 -46 23 -108 61 -139 85 -31 23 -62 42 -69 42 -24 0 115 -100 198 -142 75
-38 105 -58 87 -58 -5 0 -90 34 -208 85 -22 9 -36 12 -33 7 3 -5 56 -31 118
-57 62 -27 118 -54 124 -62 9 -11 14 -9 27 9 8 13 18 19 23 15 4 -4 -4 -19
-18 -33 -25 -25 -25 -25 -106 -13 -68 10 -88 10 -124 -2 l-43 -14 107 -5 c60
-3 112 -10 118 -16 9 -9 1 -11 -32 -7 -32 3 -52 -1 -77 -17 -18 -12 -31 -23
-29 -26 4 -4 64 6 128 22 22 5 23 4 8 -8 -9 -8 -65 -24 -125 -37 -130 -29
-158 -46 -58 -37 39 4 86 9 105 13 31 5 33 4 22 -9 -14 -18 -84 -38 -134 -39
-32 0 -32 -1 -8 -11 14 -5 49 -7 78 -5 37 4 52 2 49 -6 -7 -22 -101 -38 -219
-38 -76 0 -118 -4 -118 -10 0 -8 54 -10 165 -8 163 4 211 -2 118 -15 -81 -11
-103 -17 -103 -28 0 -9 34 -7 113 8 15 3 27 1 27 -4 0 -22 -143 -51 -177 -37
-27 11 -76 10 -80 -2 -7 -19 170 -32 235 -17 35 7 22 -18 -14 -28 -16 -4 -60
-12 -98 -17 -101 -14 -98 -26 5 -25 49 0 92 -3 95 -7 6 -10 -55 -26 -134 -35
-39 -4 -59 -10 -51 -15 8 -4 32 -5 55 -2 55 7 143 -5 123 -18 -8 -5 -35 -9
-61 -9 -26 0 -50 -4 -53 -10 -4 -6 24 -7 77 -3 l83 6 -39 -32 c-21 -17 -43
-31 -47 -31 -5 0 -9 -5 -9 -10 0 -14 48 -2 80 20 48 33 55 33 25 1 l-30 -33
37 19 c21 10 36 23 34 29 -3 7 3 10 15 7 18 -5 17 -9 -15 -35 -20 -16 -36 -34
-36 -40 0 -5 15 3 34 18 76 65 68 62 98 41 l26 -20 -47 -37 c-31 -25 -64 -65
-92 -114 -67 -117 -102 -186 -97 -191 5 -5 93 126 91 136 -3 9 121 89 137 89
9 -1 3 -10 -15 -23 -48 -36 -106 -89 -101 -94 5 -5 62 35 152 107 28 22 54 40
57 40 4 0 -16 -24 -43 -53 -27 -28 -50 -60 -50 -71 0 -20 -39 -74 -107 -148
-24 -26 -43 -52 -43 -58 0 -17 20 -11 27 8 3 9 25 35 48 58 23 22 56 65 73 96
31 54 97 128 115 128 5 0 -10 -21 -32 -47 -23 -25 -73 -103 -112 -172 -39 -69
-81 -139 -93 -156 -42 -56 -39 -60 7 -11 25 27 67 88 93 135 26 47 66 113 90
146 41 59 94 116 94 101 0 -4 -35 -60 -78 -124 -43 -64 -91 -145 -106 -180
-27 -61 -44 -132 -33 -132 3 0 23 36 43 80 21 44 41 80 46 80 4 0 8 7 8 15 0
8 4 15 9 15 5 0 11 10 15 23 3 12 22 47 42 77 19 30 47 74 61 98 38 65 37 44
-2 -36 -19 -39 -32 -77 -30 -85 3 -7 -4 -39 -15 -71 -11 -33 -20 -70 -20 -83
0 -12 -4 -23 -10 -23 -5 0 -7 -7 -4 -15 4 -8 10 -12 15 -9 10 6 6 -18 -17 -96
-16 -52 -18 -110 -5 -110 16 0 71 171 71 222 0 49 98 364 100 319 0 -11 -24
-95 -74 -253 -7 -20 -10 -56 -7 -80 l5 -43 6 35 c10 46 29 91 29 68 1 -9 6
-20 12 -23 6 -4 9 -1 8 6 -4 22 23 109 33 109 5 0 7 -8 4 -17 -25 -88 -38
-139 -46 -180 -4 -26 -11 -59 -15 -73 -5 -19 -3 -18 8 6 8 17 18 48 21 70 10
58 105 362 106 338 0 -12 -12 -62 -26 -110 -51 -175 -84 -324 -90 -401 -7 -76
-16 -103 -37 -103 -10 0 -4 92 9 145 3 14 2 25 -4 25 -15 0 -42 -81 -42 -128
0 -45 0 -45 -24 -36 -18 7 -22 39 -6 49 6 3 10 23 10 43 l-1 37 -14 -25 c-8
-14 -14 -33 -15 -43 0 -32 -41 -116 -64 -130 -11 -7 -47 -24 -78 -36 -65 -26
-92 -56 -135 -152 -16 -35 -36 -69 -44 -75 -8 -6 -52 -21 -99 -34 -65 -17
-101 -21 -153 -17 -37 3 -72 9 -77 12 -6 4 0 24 16 51 24 40 25 49 18 107 l-8
62 -6 -71 c-11 -131 -65 -163 -135 -82 -20 24 -41 54 -47 68 -12 30 7 262 27
328 11 37 11 48 -1 70 -8 15 -14 37 -14 50 0 12 -4 22 -10 22 -6 0 -10 -26
-10 -57 0 -32 -7 -116 -16 -188 -15 -116 -15 -136 -2 -187 8 -32 11 -58 6 -58
-4 0 -8 4 -8 9 0 5 -36 49 -80 97 -44 49 -85 104 -91 123 -7 21 -10 80 -7 155
3 82 2 108 -4 81 -5 -22 -13 -56 -18 -76 -6 -20 -10 -46 -10 -57 0 -51 -21
-23 -61 83 -24 63 -47 115 -50 115 -7 0 -10 -15 -25 -125 -6 -44 -7 -47 -15
-26 -15 38 -3 349 16 400 12 35 12 41 1 32 -42 -35 -96 -229 -96 -344 0 -108
-13 -88 -22 31 -6 90 -6 88 -3 -28 3 -104 7 -138 29 -200 15 -41 25 -79 23
-85 -3 -5 -32 46 -66 115 -34 68 -74 140 -89 158 -93 117 -110 173 -163 530
-52 359 -53 373 -40 474 15 114 33 171 76 242 49 81 43 91 -15 27 -28 -30 -52
-52 -54 -50 -3 3 21 45 54 94 32 50 57 92 54 94 -8 8 -65 -52 -111 -116 -25
-35 -47 -63 -49 -63 -24 0 109 192 205 294 l46 50 -40 -29 c-22 -15 -57 -44
-77 -64 -50 -46 -48 -29 3 45 55 78 125 150 161 165 43 18 28 20 -21 3 -24 -8
-52 -25 -63 -37 -16 -18 -19 -18 -14 -4 11 34 -15 6 -62 -67 -97 -150 -182
-308 -217 -402 -38 -102 -54 -137 -55 -119 0 20 58 190 95 275 68 159 88 190
185 289 52 54 108 114 123 134 15 20 54 55 87 77 60 41 76 57 66 67 -3 3 -24
-11 -46 -31 -22 -20 -44 -36 -48 -36 -27 0 -200 -177 -264 -270 l-17 -25 9 33
c14 52 137 196 250 292 24 20 23 20 -18 -2 -80 -42 -242 -223 -242 -270 0 -10
-7 -18 -15 -18 -43 0 16 115 122 235 45 52 83 97 83 100 0 18 -80 -59 -139
-134 -69 -86 -108 -153 -131 -224 -6 -21 -14 -37 -15 -35 -5 5 14 89 25 110 6
10 5 18 -1 20 -7 2 -7 13 1 33 7 19 8 31 1 33 -5 2 -7 11 -4 20 2 9 -11 0 -31
-20 -20 -21 -36 -36 -36 -34 0 7 99 146 164 231 82 108 121 144 190 177 34 16
48 26 32 23 -44 -9 -129 -68 -192 -132 l-56 -58 39 52 c47 61 184 180 228 199
42 17 167 46 173 39 3 -3 1 -5 -4 -5 -6 0 -19 -7 -30 -15 -17 -14 -15 -14 20
0 51 20 53 19 28 -8 -12 -13 -19 -27 -15 -30 3 -4 -1 -7 -10 -7 -9 0 -19 -5
-22 -11 -4 -5 9 -3 28 5 20 8 38 12 41 9 3 -3 13 0 22 8 16 13 16 12 6 -7 -9
-17 -8 -25 4 -40 9 -11 13 -14 10 -8 -3 6 6 22 21 35 l26 24 -14 -25 c-7 -14
-14 -30 -15 -36 -1 -6 -5 -22 -9 -35 l-8 -24 23 20 c13 11 33 43 46 70 20 42
24 46 24 23 0 -14 -3 -28 -8 -30 -4 -1 -15 -34 -25 -73 -10 -38 -38 -116 -62
-172 -24 -57 -41 -103 -39 -103 19 0 98 187 124 295 11 48 3 -138 -10 -220 -4
-27 -6 -52 -5 -53 12 -13 37 123 42 227 4 87 9 118 16 106 15 -27 20 -172 9
-251 -14 -97 -35 -137 -112 -212 -57 -57 -60 -61 -25 -40 22 14 61 37 87 52
25 14 60 43 77 63 l31 38 1 -40 c2 -33 3 -34 6 -10 5 41 44 205 49 205 2 0 4
-33 3 -72 -1 -52 -3 -66 -9 -48 -6 20 -8 15 -9 -25 -1 -27 -4 -61 -8 -75 -3
-14 -3 -22 1 -19 16 15 51 194 65 334 l8 80 2 -70 c1 -38 4 -101 8 -139 4 -48
3 -67 -4 -63 -7 5 -9 0 -6 -13 12 -47 -72 -185 -180 -293 -32 -32 -57 -61 -54
-63 9 -9 144 133 187 196 24 36 40 57 37 48 -18 -47 -18 -51 2 -23 11 16 26
42 32 57 18 43 32 34 24 -14 -15 -99 -36 -140 -104 -208 -36 -36 -90 -83 -119
-105 -32 -24 -75 -72 -107 -120 -30 -44 -67 -93 -81 -110 -67 -74 -70 -80 -29
-47 40 31 100 100 100 114 0 19 109 128 171 170 135 93 209 142 244 160 33 17
33 18 6 12 l-29 -7 28 39 c16 21 42 54 59 71 49 54 21 49 -37 -6 -30 -28 -57
-51 -61 -51 -9 0 37 81 81 141 41 59 42 71 2 33 l-32 -29 25 40 c27 44 112 94
161 95 16 0 26 4 22 10 -9 15 -76 12 -109 -5 -41 -22 -45 -10 -5 14 41 25 86
27 117 5 13 -9 26 -14 29 -11 8 9 -59 47 -83 47 -42 0 -123 -30 -126 -48 -3
-9 -8 3 -12 28 -22 138 -53 258 -82 320 -13 29 -22 55 -20 58 11 10 56 -53 65
-92 7 -33 9 -36 10 -13 2 64 -48 130 -92 120 -18 -4 -19 -3 -7 6 20 14 63 14
95 -1 27 -12 48 -68 59 -158 l6 -45 -16 50 c-25 76 -28 38 -4 -55 23 -91 21
-119 -4 -43 -9 26 -13 35 -11 18 3 -16 8 -58 11 -92 l7 -62 58 40 c41 28 69
39 96 40 30 0 34 2 18 9 -11 5 -33 9 -48 9 -27 1 -28 2 -11 19 12 12 33 17 70
17 45 0 57 -4 83 -29 17 -17 31 -35 31 -42 0 -6 7 -17 15 -24 24 -20 19 11 -7
50 -32 47 -103 83 -149 76 -35 -6 -37 -4 -43 25 -3 17 -6 43 -6 58 1 22 3 21
15 -13 17 -47 39 -73 31 -36 -3 14 -10 83 -16 153 -13 161 -20 208 -31 201 -5
-3 -9 -18 -9 -35 0 -16 -4 -29 -10 -29 -5 0 -10 5 -10 10 0 16 -14 11 -27 -9
-10 -16 -10 -25 1 -45 7 -14 15 -24 18 -21 2 3 5 -3 5 -13 -1 -9 1 -46 3 -82
2 -57 4 -61 10 -30 7 32 7 31 5 -10 -2 -25 1 -66 7 -92 6 -32 6 -53 -1 -65 -9
-16 -11 -15 -12 7 -1 14 -3 39 -5 55 -2 17 -6 66 -10 109 -7 90 -28 135 -78
166 -47 28 -49 25 -10 -14 21 -21 34 -44 34 -59 l0 -25 -67 28 c-38 16 -76 31
-86 34 -36 11 -5 28 44 24 40 -4 47 -2 38 9 -6 7 -28 14 -48 14 l-36 2 40 7
c31 6 34 7 13 9 -31 1 -39 21 -9 21 10 0 29 9 42 20 l24 20 -46 -19 c-64 -27
-190 -61 -220 -60 -13 0 -1 7 30 15 79 21 163 65 261 137 l25 18 -30 -7 c-16
-4 -50 -17 -75 -29 -25 -13 -63 -30 -85 -39 l-40 -16 40 33 c22 17 53 45 70
60 l30 29 -35 -23 c-19 -13 -52 -37 -72 -54 -31 -26 -123 -65 -154 -65 -5 0
-10 11 -10 25 -1 18 3 25 16 25 11 0 22 4 25 10 7 12 -55 2 -70 -11 -5 -5 -19
-48 -32 -97 l-23 -87 6 75 c6 87 20 120 54 137 14 6 39 26 55 44 l30 33 -27
-17 c-46 -29 -43 -19 11 37 28 30 51 62 51 70 0 9 16 38 35 65 19 26 35 51 35
55 0 17 -19 1 -48 -39 -39 -56 -135 -128 -229 -171 -39 -19 -75 -34 -79 -34
-4 0 21 19 57 43 56 37 68 51 97 112 19 38 36 85 39 105 4 32 2 30 -32 -30
-61 -108 -80 -131 -194 -235 -90 -81 -115 -110 -134 -155 -50 -115 -46 -108
-46 -83 -1 13 10 53 24 89 14 37 23 69 21 71 -5 6 -17 -13 -90 -147 -63 -114
-99 -164 -71 -98 8 21 15 52 14 70 0 28 -4 23 -24 -35 -13 -37 -38 -92 -55
-122 -33 -58 -51 -76 -25 -25 8 16 17 43 19 60 2 16 8 35 13 42 5 7 18 45 28
83 10 39 22 79 28 90 6 14 6 17 -1 10 -18 -18 -101 -235 -107 -283 -6 -44 -31
-112 -40 -112 -9 0 7 137 21 180 76 244 80 254 127 314 25 31 27 37 10 28 -46
-25 -110 -128 -98 -159 2 -8 1 -12 -4 -9 -5 3 -12 -2 -16 -12 -25 -66 -88
-255 -96 -292 -12 -51 -76 -190 -88 -190 -9 0 52 227 106 395 19 61 36 126 37
146 0 21 4 35 9 32 4 -2 7 5 7 16 0 31 1 33 27 74 28 44 23 62 -6 26 -34 -41
-79 -140 -126 -274 -25 -71 -48 -131 -50 -134 -20 -19 66 280 106 371 32 74
33 78 19 78 -21 0 -70 -121 -90 -220 -6 -30 -17 -75 -25 -100 -7 -25 -25 -109
-40 -187 -15 -77 -33 -161 -40 -185 -13 -43 -13 -42 -9 37 l3 80 -13 -70 c-14
-68 -48 -255 -67 -365 -5 -30 -10 -81 -10 -112 -1 -32 -5 -58 -9 -58 -12 0 11
262 40 450 6 36 12 135 15 220 l5 155 -19 -55 c-11 -30 -20 -66 -21 -80 0 -14
-19 -77 -41 -140 -23 -63 -54 -164 -70 -225 l-29 -110 5 75 c3 41 14 110 24
152 10 43 15 75 10 73 -4 -3 -10 -19 -14 -35 -4 -16 -11 -32 -16 -35 -5 -4 -9
-19 -9 -34 0 -15 -4 -31 -9 -37 -12 -13 -31 -187 -30 -281 1 -97 17 -147 19
-58 1 33 5 80 9 105 6 38 8 27 14 -70 4 -63 15 -155 24 -205 9 -49 17 -108 17
-129 0 -22 2 -33 4 -26 15 45 85 -342 77 -425 -12 -120 -27 -193 -40 -199 -11
-4 -14 10 -11 69 1 41 -1 72 -6 69 -4 -3 -7 -51 -7 -107 1 -56 3 -93 6 -82 3
11 10 25 15 30 8 7 9 4 4 -8 -3 -11 -9 -30 -12 -44 -5 -18 -9 -21 -15 -11 -6
9 -9 2 -9 -20 0 -36 -42 -212 -59 -252 -11 -24 -11 -24 -5 5 10 51 34 190 34
199 0 4 -7 6 -15 2 -13 -5 -14 -2 -3 17 17 32 22 247 8 383 -6 65 -27 192 -46
283 -19 91 -46 222 -60 291 -15 74 -44 171 -70 238 -99 247 -130 449 -114 736
8 136 14 182 32 226 12 30 26 61 31 68 5 7 8 15 5 18 -3 2 -20 -18 -39 -47
-18 -28 -48 -70 -67 -92 -46 -56 -77 -121 -91 -194 -6 -34 -30 -112 -51 -173
-36 -99 -40 -120 -39 -198 1 -48 3 -78 6 -67 10 50 47 165 53 165 3 0 7 -21 8
-46 2 -44 -11 -100 -44 -202 -29 -88 -11 -74 42 33 l54 110 0 -79 c0 -67 -4
-86 -26 -124 -33 -55 -64 -164 -63 -217 l1 -40 9 35 c32 119 70 210 89 210 4
0 -4 -53 -16 -117 -23 -117 -32 -249 -16 -239 5 3 10 26 11 52 2 76 11 64 11
-15 0 -89 15 -86 23 5 7 72 13 86 27 64 8 -12 10 -11 10 7 0 12 -4 23 -9 25
-4 2 -5 12 0 23 l8 20 2 -20 c1 -11 5 -2 10 20 4 23 5 -27 3 -115 -3 -107 -2
-150 5 -140 6 8 11 38 12 65 0 28 4 61 8 75 l7 25 6 -23 c4 -13 3 -60 -2 -105
-4 -45 -6 -84 -4 -86 9 -10 27 20 40 66 l13 48 0 -77 c1 -53 13 -131 40 -245
49 -210 56 -284 41 -453 -9 -116 -63 -427 -76 -439 -7 -7 -5 10 11 92 16 85
19 133 4 77 -23 -89 -31 -112 -36 -107 -2 3 1 21 8 40 9 25 9 45 2 75 -7 28
-7 44 0 51 6 6 7 11 3 11 -5 0 -3 6 4 14 10 13 8 13 -14 3 -14 -7 -27 -21 -30
-32 -3 -11 -3 30 0 91 5 111 -2 168 -16 129 -4 -11 -12 32 -18 96 -16 151 -50
290 -119 479 -119 327 -133 377 -148 521 -8 74 -22 180 -30 234 -50 307 29
897 158 1180 63 140 114 281 105 291 -4 3 -71 -21 -149 -55 -78 -34 -144 -60
-146 -58 -9 10 166 202 248 273 90 77 279 209 310 216 8 2 16 5 19 8 5 6 136
66 302 140 54 24 96 45 94 47 -2 2 -42 -12 -90 -31 -47 -19 -114 -43 -148 -52
-35 -10 -100 -33 -145 -51 -46 -18 -122 -49 -170 -68 -48 -19 -91 -34 -96 -32
-14 4 72 61 168 110 109 55 222 117 215 117 -17 0 -106 -32 -146 -54 -27 -14
-55 -26 -62 -26 -8 0 -10 -5 -6 -12 4 -7 4 -10 -1 -6 -4 4 -15 2 -23 -5 -36
-29 7 25 82 104 59 61 103 96 170 134 50 29 134 78 186 110 225 139 258 157
325 178 59 18 93 22 217 22 96 0 148 4 148 10 0 19 -131 48 -240 54 l-105 6
90 19 c50 11 131 23 180 27 138 11 381 3 447 -15z m-2048 -1788 c-12 -22 -68
-89 -138 -167 -66 -74 -132 -190 -122 -216 3 -8 1 -15 -3 -17 -4 -2 -11 -22
-15 -46 -4 -29 -3 -41 4 -37 5 3 10 11 10 16 0 6 9 29 20 51 23 48 24 52 10
43 -16 -10 -11 18 11 60 28 53 38 62 32 31 -3 -14 -9 -26 -14 -26 -5 0 -9 -10
-9 -22 l1 -23 12 21 c7 12 18 19 25 17 6 -3 12 0 12 7 0 6 -4 8 -10 5 -5 -3
-10 1 -10 9 0 8 5 18 10 21 8 5 7 12 -2 23 -12 15 -11 16 5 3 13 -10 14 -17 7
-26 -8 -10 -8 -15 1 -21 8 -4 23 5 41 25 43 49 33 18 -12 -36 -23 -26 -50 -59
-60 -71 -11 -13 -20 -29 -20 -35 0 -8 4 -7 9 2 5 7 14 10 20 7 6 -4 11 0 11
11 0 15 2 16 10 3 8 -13 10 -12 10 4 0 11 7 28 16 37 13 15 21 16 36 8 14 -7
18 -7 14 -1 -6 9 49 102 60 102 2 0 -17 -42 -42 -92 -67 -133 -91 -204 -104
-302 -16 -115 -7 -132 12 -26 21 110 56 206 71 191 19 -19 26 -12 39 36 6 26
13 43 15 38 3 -10 -57 -249 -96 -380 -12 -38 -20 -92 -20 -120 l1 -50 8 47
c11 64 39 146 52 155 7 4 9 1 6 -8 -12 -33 -19 -59 -15 -59 2 0 14 27 26 61
13 33 24 59 26 57 2 -2 -4 -34 -13 -71 -10 -38 -20 -66 -22 -64 -3 3 -6 -10
-8 -30 -2 -28 -26 -128 -49 -205 -3 -10 -3 -18 -1 -18 3 0 26 53 52 118 26 64
55 128 66 142 l19 25 -5 -55 c-12 -123 -47 -307 -63 -335 -9 -16 -33 -38 -54
-48 -20 -10 -37 -23 -37 -29 0 -13 101 44 112 63 18 33 48 107 62 154 8 28 15
45 15 38 2 -21 -30 -237 -39 -273 -13 -49 -68 -99 -132 -121 -46 -16 -49 -18
-22 -19 48 0 114 40 150 93 36 53 49 47 39 -16 -11 -74 -25 -105 -61 -136 -39
-35 -42 -41 -15 -34 28 7 79 64 107 119 l25 49 -4 -43 c-3 -25 -1 -40 5 -36 5
4 7 -11 4 -38 -3 -23 -5 -51 -5 -60 -1 -30 -62 -88 -125 -119 -34 -17 -68 -37
-76 -46 -8 -9 -10 -14 -5 -11 6 3 49 24 96 46 63 30 92 51 112 79 27 38 36 39
17 2 -14 -25 -4 -43 14 -26 8 6 12 15 9 20 -2 4 0 7 5 7 5 0 14 12 21 26 6 15
14 24 17 21 6 -6 -32 -85 -54 -109 -13 -16 -13 -18 0 -18 8 0 26 8 39 18 48
35 69 43 69 29 0 -23 -59 -97 -91 -115 -31 -18 -39 -42 -13 -42 22 0 114 51
114 63 0 5 7 6 16 3 8 -3 12 -2 9 3 -3 5 -1 12 4 15 9 6 21 -26 21 -60 0 -36
-111 -155 -193 -208 -43 -26 -77 -50 -77 -52 0 -9 149 71 205 110 75 52 95 61
95 40 0 -25 -29 -74 -73 -122 l-42 -45 33 6 c19 4 52 23 75 43 40 34 42 34 45
14 5 -31 -15 -77 -58 -135 -44 -60 -55 -85 -35 -85 7 0 32 21 54 48 l41 47 0
-35 c0 -57 -15 -95 -64 -154 -47 -58 -81 -114 -73 -122 2 -2 16 13 30 34 14
22 42 57 61 78 58 63 86 108 95 155 l9 44 1 -48 c1 -54 -7 -73 -55 -132 -17
-22 -44 -69 -59 -105 -25 -59 -28 -80 -32 -215 -3 -82 0 -168 5 -190 8 -32 10
-7 11 118 1 160 14 252 34 240 6 -4 8 0 4 11 -7 19 18 76 33 76 12 0 12 -9 -1
-90 -5 -36 -16 -107 -24 -159 -8 -52 -18 -97 -23 -100 -5 -3 -8 -24 -8 -46 1
-22 -2 -62 -6 -90 -29 -184 -38 -257 -32 -282 10 -49 -112 210 -141 297 -26
78 -135 313 -155 334 -5 5 -7 -43 -5 -115 5 -169 -13 -116 -46 134 -4 37 -16
80 -24 95 -15 25 -16 21 -11 -83 l5 -110 -20 55 c-11 30 -29 100 -41 155 -11
55 -22 102 -24 104 -2 2 -1 -50 2 -115 5 -114 4 -118 -11 -90 -33 56 -58 142
-65 221 l-7 80 -2 -75 c-2 -41 -6 -86 -11 -100 l-7 -25 -12 28 c-16 40 -14
160 5 234 9 35 14 69 11 75 -8 24 -34 -47 -52 -138 -28 -148 -49 -161 -34 -21
13 111 7 142 -11 60 -8 -35 -17 -63 -21 -63 -4 0 -10 33 -13 73 -8 76 0 128
35 235 12 35 19 66 16 69 -11 11 -62 -105 -88 -202 -27 -98 -27 -99 -28 -49
-1 27 -6 55 -12 61 -18 18 -6 121 21 182 13 30 53 87 88 125 35 39 75 90 89
114 28 48 61 159 66 231 3 25 2 34 0 18 -2 -15 -8 -25 -12 -23 -4 3 -8 -10 -8
-27 -2 -39 -53 -166 -87 -216 -14 -20 -50 -65 -81 -101 -31 -36 -72 -99 -93
-140 -35 -71 -37 -73 -40 -43 -2 18 7 68 19 113 17 64 37 105 101 203 45 67
84 124 88 127 5 3 19 37 32 75 20 61 23 88 22 215 0 80 -9 222 -18 315 -22
200 -17 299 17 407 32 99 72 162 146 226 83 72 127 116 146 146 17 26 32 37
19 14z m4000 -537 c61 -57 116 -227 115 -351 0 -65 0 -65 -13 -30 -7 19 -28
98 -46 175 -43 189 -39 181 -107 201 -80 24 -90 37 -25 32 36 -4 60 -12 76
-27z m1259 -185 c46 -78 78 -161 93 -242 l7 -38 -26 17 -25 16 5 -74 c4 -48 2
-75 -4 -75 -6 0 -25 39 -43 88 -18 48 -55 131 -83 185 -49 97 -67 171 -49 204
9 15 96 -135 127 -220 10 -26 20 -46 22 -43 10 9 -33 128 -78 218 -27 54 -49
101 -49 105 0 16 56 -61 103 -141z m-87 -167 c25 -40 67 -117 93 -173 26 -56
77 -140 114 -188 53 -71 60 -85 39 -74 -46 24 -271 262 -292 308 -31 69 -11
64 37 -9 53 -81 58 -86 48 -53 -6 22 -72 199 -90 243 -16 38 8 13 51 -54z
m-5595 -2 c-5 -23 -20 -87 -32 -142 -22 -102 -45 -161 -73 -184 -9 -8 -16 -18
-16 -24 0 -6 15 4 33 21 28 28 79 118 125 222 10 23 11 24 11 3 2 -39 -37
-145 -71 -194 -26 -38 -50 -58 -117 -94 -47 -24 -87 -43 -90 -40 -2 3 9 20 26
38 39 42 66 91 88 158 9 30 37 97 60 150 24 52 47 109 51 125 4 16 9 23 12 16
2 -8 -1 -32 -7 -55z m5453 -164 c4 -35 19 -87 36 -122 17 -33 41 -88 54 -120
29 -72 60 -118 160 -236 77 -91 104 -145 91 -186 -6 -18 -11 -14 -30 28 -26
54 -33 54 -10 0 19 -45 20 -130 3 -125 -7 3 -28 33 -45 68 -18 34 -67 114
-109 177 -42 62 -87 141 -100 176 l-24 62 6 -55 c8 -76 31 -123 119 -250 41
-60 84 -128 95 -152 19 -42 27 -128 13 -141 -3 -4 -19 24 -35 61 -19 46 -44
84 -78 117 -55 54 -68 51 -19 -5 65 -75 84 -119 84 -195 0 -75 -11 -129 -24
-121 -4 3 -11 39 -14 80 -9 105 -37 170 -103 244 -31 34 -59 61 -61 58 -3 -3
16 -34 41 -69 72 -101 87 -143 93 -266 7 -121 -2 -204 -20 -198 -16 5 -36 64
-36 107 -1 56 -68 213 -107 251 -19 18 -34 28 -34 21 0 -7 4 -12 10 -12 17 0
58 -83 90 -185 30 -94 31 -106 25 -193 -4 -51 -9 -92 -10 -90 -2 2 -9 35 -15
73 -15 100 -21 125 -28 125 -4 0 -5 -39 -3 -86 4 -97 -5 -174 -21 -174 -6 0
-8 10 -4 25 6 22 -2 110 -9 103 -2 -2 -13 -64 -25 -138 -31 -199 -30 -193 -46
-140 -8 25 -14 66 -14 93 0 61 -32 175 -70 253 -34 70 -89 148 -97 140 -4 -3
2 -16 13 -29 65 -76 124 -234 124 -336 0 -51 -41 -177 -105 -321 -93 -207
-106 -241 -125 -317 -11 -42 -22 -79 -25 -81 -3 -3 -5 40 -5 95 0 111 -17 441
-25 487 -9 50 6 21 31 -61 15 -49 22 -63 19 -38 -3 22 -10 81 -16 132 -5 51
-16 111 -24 134 -9 23 -14 44 -12 46 8 7 48 -96 62 -157 l15 -65 -5 60 c-3 33
-19 113 -35 178 -17 65 -32 132 -35 149 -3 17 -8 36 -11 42 -14 29 50 -55 74
-96 41 -73 47 -57 8 21 -19 38 -41 96 -49 130 -14 59 -14 61 3 46 10 -9 31
-35 46 -57 41 -58 40 -33 -1 60 -51 117 -47 186 7 113 25 -35 68 -73 108 -96
8 -5 -13 21 -47 58 -69 74 -80 98 -63 141 10 28 11 28 26 10 14 -17 14 -16 0
8 -9 16 -16 49 -16 80 l1 53 24 -45 c24 -47 94 -119 136 -140 13 -6 -3 15 -37
47 -65 62 -98 127 -92 179 l3 29 25 -43 c20 -36 130 -134 130 -117 0 4 -24 29
-54 56 -31 28 -59 64 -65 82 -16 54 -22 107 -15 129 6 21 7 21 22 2 13 -17 14
-17 8 -1 -24 71 -19 71 43 6 l62 -64 -46 61 c-25 33 -49 74 -54 91 -9 30 -4
83 8 83 3 0 20 -25 36 -56 17 -30 39 -63 49 -72 13 -12 11 -4 -8 26 -65 104
-86 169 -66 202 9 13 10 13 10 0 0 -30 46 -98 88 -134 61 -50 65 -45 10 12
-55 55 -87 121 -86 177 0 22 -1 45 -2 50 -1 6 -2 24 -1 40 2 27 5 24 36 -35
34 -66 91 -137 102 -127 3 4 -13 27 -35 52 -35 40 -72 116 -72 149 0 6 11 -6
25 -27 29 -41 71 -67 111 -67 l27 0 -6 83 c-5 91 6 77 17 -20z m167 -87 c90
-96 181 -213 230 -298 21 -36 39 -69 39 -73 0 -12 -226 221 -240 248 -8 16
-30 45 -48 65 -19 19 -38 46 -43 59 -15 40 -22 73 -14 73 4 0 38 -33 76 -74z
m-5576 -85 c-12 -37 -36 -69 -93 -128 -58 -59 -90 -102 -125 -169 -25 -50 -54
-97 -64 -105 -15 -13 -16 -12 -9 6 23 59 46 130 46 145 0 44 34 124 63 151 17
16 37 29 43 29 21 0 111 97 125 134 13 37 14 37 22 12 6 -18 3 -42 -8 -75z
m5584 -69 c19 -11 22 -11 15 0 -4 7 20 -16 54 -52 79 -83 106 -128 127 -213
18 -77 15 -92 -11 -50 -10 15 -55 70 -101 120 -81 91 -110 134 -116 170 -1 10
-6 23 -10 29 -7 13 4 28 12 17 3 -5 17 -14 30 -21z m-5589 -66 c0 -13 -29 -64
-63 -113 -35 -49 -85 -132 -110 -184 -26 -52 -47 -87 -47 -79 -1 48 35 202 56
240 25 47 114 151 114 135 0 -5 7 1 16 13 18 26 34 20 34 -12z m3660 -127 c36
-7 73 -12 83 -13 9 0 17 -4 17 -8 0 -4 8 -8 18 -8 27 0 77 -35 102 -72 l22
-33 -25 27 c-54 58 -164 88 -320 88 -128 0 -267 -33 -267 -63 0 -5 -7 -7 -15
-3 -8 3 -19 -3 -25 -12 -9 -14 -10 -12 -4 8 8 34 28 47 104 70 102 30 208 36
310 19z m-286 -84 c-4 -8 -3 -15 1 -15 3 0 13 7 21 15 19 18 75 20 92 3 10
-10 15 -10 20 -1 4 6 28 10 57 8 66 -3 63 -2 61 -29 0 -13 -6 -22 -12 -19 -21
8 -28 -19 -9 -34 18 -13 18 -13 -1 -14 -10 0 -13 -3 -6 -6 6 -2 12 -13 12 -22
0 -14 -6 -17 -27 -13 -16 3 -22 7 -15 10 10 3 10 7 0 20 -10 12 -10 14 0 8 23
-14 13 20 -13 42 -14 12 -25 30 -25 39 0 13 -3 14 -12 5 -9 -9 -8 -16 5 -30
20 -22 22 -46 5 -39 -7 2 -12 10 -10 16 3 15 -31 14 -47 -1 -10 -10 -15 -10
-18 -1 -7 18 -33 4 -33 -18 0 -10 -4 -19 -9 -19 -5 0 -7 8 -4 19 5 20 -10 34
-43 38 -25 4 -49 -21 -38 -38 5 -9 10 -7 15 7 7 17 8 17 8 -5 1 -18 5 -22 21
-18 11 3 20 0 20 -6 0 -7 11 -17 25 -24 22 -10 25 -9 26 10 1 20 2 20 8 -3 4
-14 7 -27 5 -29 -1 -1 -24 4 -51 12 -26 9 -59 17 -73 19 -14 2 -28 8 -32 13
-12 16 -9 80 4 93 18 18 32 14 17 -5 -9 -11 -3 -9 15 5 33 26 48 28 40 7z
m-2079 -426 c-8 -57 -21 -156 -30 -219 -19 -134 -55 -273 -120 -455 -26 -71
-55 -161 -66 -200 -24 -85 -37 -215 -21 -215 9 0 62 198 62 238 1 14 2 15 9 2
5 -9 3 -49 -5 -95 -12 -75 -9 -185 5 -185 4 0 8 36 9 80 3 93 50 334 92 465
16 50 36 125 46 167 9 43 20 75 24 73 10 -6 22 88 14 108 -3 8 0 26 8 39 7 13
15 55 19 93 l6 70 1 -70 c1 -38 -5 -117 -13 -175 -8 -58 -15 -111 -15 -117 0
-7 -5 -13 -11 -13 -6 0 -8 9 -4 23 6 18 5 20 -6 10 -9 -9 -10 -18 -2 -35 8
-17 6 -37 -8 -78 -78 -233 -119 -499 -92 -598 9 -37 23 -6 23 53 0 104 44 394
57 381 3 -2 -3 -40 -12 -83 -19 -85 -32 -372 -21 -446 4 -24 12 -52 19 -61 10
-13 12 10 12 116 0 73 6 165 12 203 11 64 68 425 76 485 2 14 2 -106 -1 -266
-4 -205 -2 -296 6 -310 10 -16 11 -10 12 33 0 60 45 382 60 428 5 17 11 41 12
55 2 14 8 -51 12 -145 6 -117 5 -189 -3 -231 -6 -34 -10 -101 -10 -150 l2 -89
7 65 c9 72 47 251 60 284 8 19 9 18 10 -9 2 -26 4 -23 15 20 13 48 14 48 10
10 -22 -219 -25 -336 -11 -430 l14 -90 2 125 c3 178 15 198 17 28 2 -165 21
-262 22 -116 1 116 18 233 42 287 11 24 22 42 24 39 3 -3 0 -39 -6 -79 -13
-82 -16 -242 -9 -449 4 -95 1 -151 -9 -188 -7 -29 -11 -55 -8 -58 2 -3 12 26
22 63 11 44 20 136 26 263 6 141 14 217 29 274 11 44 20 81 20 84 0 3 2 3 5 0
3 -2 -2 -36 -10 -74 -11 -51 -14 -139 -13 -344 0 -151 -2 -291 -6 -310 l-7
-35 16 28 c9 16 14 35 11 43 -9 23 12 536 24 569 7 22 9 1 5 -86 -6 -138 5
-363 16 -352 5 5 10 71 13 148 3 89 10 156 19 185 l16 45 -7 -65 c-4 -36 -6
-99 -5 -140 6 -180 4 -231 -16 -330 -11 -58 -32 -136 -46 -174 -14 -38 -24
-74 -21 -80 2 -6 5 -4 5 4 1 8 15 44 31 78 17 35 30 78 30 95 1 18 7 61 16 97
8 36 19 126 24 200 13 187 30 232 23 65 -4 -109 -22 -243 -49 -365 l-5 -25 14
25 c22 39 68 246 75 335 4 56 8 73 13 55 12 -42 10 -130 -7 -235 -8 -55 -21
-145 -29 -200 -7 -55 -17 -108 -20 -117 -4 -10 -5 -18 -2 -18 8 0 38 103 47
161 6 41 8 46 8 19 1 -19 -3 -69 -9 -110 -5 -41 -14 -106 -19 -145 -5 -38 -14
-90 -20 -115 -22 -92 -40 -247 -35 -305 16 -172 30 -174 39 -8 4 65 13 165 21
223 35 253 45 341 47 437 2 55 6 96 10 90 5 -9 11 -8 20 3 7 8 12 14 11 12 -1
-2 4 -20 12 -41 28 -80 28 -234 0 -451 -10 -78 11 -14 40 125 22 103 28 158
29 265 1 81 4 121 8 100 5 -25 6 -19 3 19 -3 38 -1 51 6 44 6 -6 15 -80 20
-164 14 -227 20 -247 36 -119 7 58 10 128 8 155 -11 111 -13 180 -5 160 5 -11
9 -15 10 -10 1 6 8 -8 16 -29 32 -88 28 -223 -12 -446 l-4 -25 10 25 c6 14 27
84 46 155 27 104 34 147 33 215 l-2 85 -8 -85 c-17 -174 -26 -186 -27 -35 0
143 -18 228 -58 291 -10 15 -12 24 -5 29 7 3 11 -2 11 -14 0 -11 8 -25 18 -30
10 -5 24 -32 32 -60 7 -27 17 -48 22 -45 5 3 6 -7 3 -23 -5 -25 -4 -25 4 -6 7
16 6 33 -5 59 -8 20 -13 38 -10 41 2 2 7 -6 11 -19 4 -13 18 -34 30 -48 32
-34 41 -62 49 -145 16 -169 -43 -343 -144 -422 -131 -104 -174 -162 -205 -280
-18 -69 -19 -157 -3 -204 6 -19 27 -53 46 -77 l35 -43 -52 21 c-29 11 -69 29
-89 41 -20 11 -63 35 -95 52 -100 56 -126 88 -173 217 -28 78 -72 163 -116
225 -16 22 -51 74 -78 115 -27 41 -90 125 -139 185 -50 61 -107 135 -128 166
-44 63 -155 332 -178 430 -13 60 -35 255 -35 323 l0 29 -26 -24 -26 -24 7 25
c12 43 45 107 73 143 l27 33 1 -225 c0 -161 4 -232 13 -246 10 -17 11 -13 6
26 -15 117 33 376 90 490 32 62 76 232 115 442 50 268 87 433 96 425 2 -3 -3
-51 -11 -109z m3541 44 c4 -21 1 -94 -7 -163 -8 -69 -14 -184 -14 -257 0 -73
-3 -124 -6 -114 -19 51 -31 180 -26 269 10 146 30 302 38 302 5 0 11 -17 15
-37z m-1205 -488 c21 -47 26 -84 39 -258 6 -94 13 -131 25 -143 9 -9 18 -14
21 -11 16 15 25 96 26 212 0 96 2 120 8 90 5 -22 7 -48 4 -57 -3 -9 2 -47 11
-85 12 -49 14 -90 9 -146 -6 -72 -8 -77 -23 -63 -21 19 -98 47 -120 44 -13 -3
-15 6 -14 47 2 28 3 82 5 120 1 39 3 57 6 40 2 -16 8 -34 13 -40 5 -5 9 -29
10 -55 1 -25 5 -56 9 -70 6 -18 7 -10 4 25 -12 134 -34 293 -43 318 -6 16 -9
32 -6 37 3 5 1 10 -3 12 -5 1 -12 19 -15 38 -5 32 -5 33 5 10 6 -14 19 -43 29
-65z m-206 -248 c-18 -104 -66 -218 -104 -249 -25 -19 -26 -19 -29 -1 -2 10 9
73 24 138 14 66 32 147 39 180 16 73 33 125 34 105 1 -29 -28 -206 -48 -295
-23 -102 -25 -118 -9 -91 24 43 57 138 52 154 -5 13 -4 14 4 3 7 -10 11 -2 14
30 3 24 11 87 19 139 l14 95 3 -58 c2 -31 -4 -99 -13 -150z m-2959 -677 l7
-45 13 30 c12 27 13 19 14 -80 2 -173 18 -173 20 0 2 83 6 164 10 180 l8 30 1
-27 c0 -16 5 -28 9 -28 5 0 12 -66 16 -147 8 -182 25 -225 26 -66 0 129 12
197 41 233 l20 25 -6 -35 c-12 -63 -17 -280 -7 -280 6 0 12 17 15 38 3 20 8
51 11 67 6 28 5 28 -8 -5 -8 -19 -15 -28 -15 -20 -1 8 7 29 16 45 9 17 22 59
30 95 l13 65 -5 -72 c-3 -40 -14 -111 -25 -158 -11 -47 -19 -109 -19 -138 1
-48 2 -46 14 33 7 47 14 91 14 98 1 7 4 11 9 9 4 -3 8 8 8 25 1 17 6 33 12 37
6 3 10 20 10 38 -1 18 7 40 21 54 26 28 26 26 1 -64 -19 -67 -47 -393 -35
-406 3 -2 5 0 5 5 0 5 7 68 15 140 18 165 34 241 46 223 6 -10 9 -8 9 9 0 13
4 21 9 18 5 -3 14 8 20 24 20 60 16 28 -11 -82 -25 -101 -28 -129 -26 -263 1
-82 3 -127 5 -100 5 91 25 217 33 205 4 -6 10 9 12 35 3 26 11 52 18 58 9 9
10 5 3 -18 -4 -16 -8 -77 -8 -135 0 -111 15 -174 57 -247 33 -54 34 -21 3 70
-24 73 -33 170 -17 192 17 24 31 14 27 -18 -4 -25 -3 -28 4 -12 7 15 10 7 10
-37 2 -100 20 -79 50 57 7 32 9 17 10 -75 1 -102 5 -125 32 -200 17 -47 36
-102 42 -122 7 -25 17 -38 29 -38 9 0 16 6 13 13 -40 121 -60 224 -46 245 5 8
16 -15 30 -65 12 -43 40 -116 61 -163 21 -47 44 -104 51 -127 7 -24 16 -43 21
-43 17 0 7 99 -21 205 -16 60 -28 111 -27 112 7 7 55 -130 50 -139 -4 -6 -2
-8 4 -4 13 8 92 -155 100 -209 l6 -40 6 34 c3 19 10 36 15 38 6 2 26 -23 45
-54 18 -32 39 -65 46 -73 7 -8 16 -27 19 -42 l7 -28 -53 16 c-115 34 -241 88
-254 108 -7 12 -16 52 -20 91 -7 64 -8 68 -22 50 -9 -13 -13 -37 -11 -67 3
-44 1 -47 -17 -42 -46 14 -264 127 -280 145 -10 10 -24 40 -30 66 -14 54 -39
69 -49 29 -4 -15 -11 -26 -16 -26 -5 0 -53 36 -106 80 -74 63 -177 142 -201
155 -2 1 6 33 17 71 18 60 20 103 22 339 0 172 4 248 8 210 5 -33 11 -80 16
-105z m1856 -84 c65 -86 103 -163 120 -239 5 -27 12 -47 14 -45 6 7 -24 191
-36 223 -7 17 -14 48 -16 69 l-4 39 59 -79 c32 -43 110 -133 174 -199 64 -66
126 -137 139 -158 48 -79 63 -101 75 -104 22 -8 -38 99 -85 150 -39 42 -42 47
-14 26 32 -23 103 -108 128 -153 47 -82 67 -140 79 -226 l14 -95 -3 105 c-5
117 -21 172 -82 269 -41 64 -112 141 -130 141 -7 0 -16 5 -20 12 -4 6 -3 8 4
4 6 -3 13 -2 17 4 10 16 25 11 18 -6 -5 -14 -3 -15 16 -4 21 10 22 10 17 -8
-4 -11 0 -24 9 -32 12 -10 15 -10 15 0 0 7 7 10 16 6 14 -5 15 -4 4 9 -18 22
3 18 34 -6 15 -12 25 -28 22 -35 -3 -8 0 -13 6 -11 20 4 53 -70 66 -145 7 -40
17 -98 22 -128 8 -46 9 -38 5 53 -4 112 -23 174 -75 247 -17 24 -19 33 -9 51
8 17 8 20 -1 14 -8 -5 -11 -3 -8 6 3 8 10 13 16 12 8 -2 9 5 2 22 -5 14 -6 25
-2 25 10 0 31 -45 57 -124 26 -79 41 -76 20 4 -14 55 -53 157 -65 175 -4 6
-19 32 -34 58 -23 42 -24 46 -7 37 32 -17 106 -140 145 -240 l36 -95 0 -175
c0 -224 -17 -288 -105 -410 -18 -25 -47 -74 -64 -110 -18 -36 -50 -90 -72
-120 -71 -99 -119 -174 -131 -207 -7 -18 -16 -33 -21 -33 -14 0 1 52 55 186
27 69 47 128 45 131 -9 8 -52 -67 -78 -134 -13 -35 -27 -63 -30 -63 -4 0 -9
105 -11 233 -7 304 -38 468 -115 594 -61 100 -158 266 -182 313 -13 25 -40 70
-61 100 -20 30 -57 96 -83 145 l-47 90 41 -45 c22 -25 68 -81 101 -124z m1608
-57 c-8 -30 -29 -58 -74 -103 -70 -67 -119 -159 -201 -373 -55 -146 -97 -202
-221 -302 -59 -48 -154 -82 -321 -116 -41 -8 -42 5 -4 28 91 53 132 150 138
327 3 88 11 150 28 210 13 47 29 113 36 148 7 34 17 62 21 62 4 0 5 8 2 18 -5
14 -4 14 4 2 8 -10 8 -18 0 -27 -7 -9 -7 -13 1 -13 6 0 11 5 11 12 0 8 6 7 16
-4 15 -15 14 -23 -15 -110 -17 -51 -31 -97 -31 -103 0 -22 19 15 40 78 12 37
26 65 31 62 5 -4 6 0 3 8 -3 8 -1 18 5 21 6 4 7 14 4 23 -4 10 -2 14 4 10 6
-4 9 -25 7 -48 -2 -24 0 -38 6 -34 14 9 12 -7 -4 -30 -13 -20 -38 -115 -29
-115 2 0 11 17 19 38 9 20 32 71 51 113 35 74 37 76 53 57 16 -20 16 -20 15 3
0 13 -4 29 -8 36 -4 6 -2 15 4 19 7 4 9 3 5 -4 -3 -6 -2 -13 3 -16 5 -3 12 5
15 19 4 14 11 25 16 25 5 0 7 8 4 18 -5 14 -4 15 5 2 6 -8 11 -10 11 -4 0 5 7
19 15 30 9 10 5 -2 -7 -27 -13 -26 -27 -44 -32 -41 -5 3 -7 -2 -3 -11 6 -16
-1 -44 -35 -131 -10 -27 -16 -51 -13 -54 6 -6 20 27 48 113 13 39 27 70 32 70
6 0 16 4 24 9 10 6 12 5 7 -2 -4 -7 -5 -12 -2 -12 2 0 12 -3 22 -7 13 -5 15
-3 9 8 -8 12 -6 12 8 0 10 -8 20 -11 24 -7 3 3 2 6 -4 6 -6 0 -14 8 -17 17 -6
15 -5 15 13 -1 18 -16 18 -21 6 -56 -8 -22 -19 -49 -26 -62 -12 -22 -11 -22 6
-8 11 8 34 32 54 53 19 21 69 67 111 102 46 38 85 80 95 102 22 46 30 30 15
-28z m993 -116 c-7 -2 -13 -17 -12 -31 0 -25 1 -25 10 -7 7 15 7 11 3 -14 -4
-24 -3 -31 5 -27 6 4 10 4 9 -1 -1 -4 2 -19 6 -32 8 -24 9 -24 22 -6 8 10 14
15 14 10 0 -5 7 0 15 11 14 18 14 17 5 -8 -6 -18 -6 -28 0 -28 6 0 10 5 10 11
0 5 4 8 9 5 12 -8 28 13 46 60 12 31 14 33 9 9 -8 -44 -58 -130 -73 -127 -7 1
-10 -2 -6 -8 13 -21 -93 -142 -202 -232 l-73 -59 1 48 c0 29 3 41 7 30 6 -14
10 -12 24 15 18 36 32 162 17 152 -5 -3 -9 2 -9 10 0 35 18 22 30 -21 11 -39
15 -43 21 -25 4 11 9 65 11 120 2 55 6 98 11 95 4 -2 6 -12 5 -21 -2 -9 2 -16
8 -15 6 1 18 -23 28 -53 9 -29 20 -54 23 -54 23 0 44 72 24 84 -11 7 -24 93
-16 106 3 5 12 10 18 9 9 0 9 -2 0 -6z m-961 -291 c10 -12 10 -16 1 -19 -21
-7 -15 -20 12 -25 16 -4 25 0 28 11 3 10 5 7 6 -7 1 -21 3 -22 16 -8 8 8 16
21 16 28 1 7 5 -14 10 -47 14 -102 -15 -467 -41 -516 -23 -43 -436 -172 -733
-229 -95 -18 -317 -41 -326 -33 -2 1 13 41 35 88 l39 85 40 -7 c57 -10 116 -5
142 12 12 8 30 12 40 8 16 -6 16 -5 3 8 -8 8 -34 15 -57 15 -42 2 -148 32
-140 41 3 2 49 -5 102 -16 54 -10 103 -18 109 -16 6 2 32 6 57 8 25 3 56 10
68 17 17 9 26 9 37 -1 11 -9 14 -8 14 10 0 11 5 21 10 21 14 0 2 -47 -22 -89
-10 -18 -16 -36 -13 -39 8 -9 45 30 38 41 -3 6 -1 7 5 3 7 -4 12 -13 12 -21 0
-8 4 -16 8 -19 5 -3 7 9 5 27 l-3 32 15 -32 c15 -33 30 -47 19 -18 -4 11 -2
13 9 9 9 -3 25 -1 36 6 14 7 21 7 21 0 0 -5 5 -10 11 -10 5 0 8 4 5 8 -2 4 -1
14 5 22 7 12 9 11 9 -5 1 -36 20 9 22 50 1 22 4 31 9 23 5 -7 6 -24 3 -38 l-4
-25 10 23 c5 13 8 28 4 33 -3 5 -1 9 5 9 15 0 23 -18 11 -25 -13 -8 -13 -35
-1 -35 5 0 12 8 15 18 3 9 3 0 0 -22 -4 -28 -2 -37 8 -34 16 6 35 70 52 183 8
50 15 77 16 60 1 -28 2 -29 10 -7 5 12 12 22 15 22 4 0 4 -4 0 -9 -3 -5 -1
-12 4 -16 6 -3 11 17 14 47 2 29 4 4 5 -55 1 -60 6 -106 11 -103 19 12 34 128
26 214 -4 48 -8 97 -9 109 0 11 -5 19 -10 15 -5 -3 -7 2 -3 10 3 9 1 20 -4 25
-6 6 -4 14 5 23 14 10 19 5 37 -36 35 -83 51 -161 47 -239 -2 -40 0 -71 5 -68
4 2 7 28 7 58 0 30 5 66 11 82 28 71 37 168 23 258 -7 49 -12 91 -12 94 1 3
-4 24 -10 46 -16 55 -14 69 4 21 8 -21 20 -46 26 -54z m-1738 -615 c14 -10 15
-18 7 -40 -6 -16 -11 -29 -11 -30 0 -12 56 4 75 21 l25 22 0 -25 c0 -14 5 -25
11 -25 5 0 7 5 4 10 -3 6 -1 10 4 10 6 0 11 -7 11 -15 0 -31 28 -14 38 23 6
21 11 28 11 17 2 -18 3 -18 16 5 12 23 13 20 8 -37 -6 -68 2 -81 19 -32 l11
32 14 -24 c14 -24 14 -24 10 8 -2 18 0 30 5 27 4 -3 8 3 8 12 0 10 2 15 5 12
5 -4 -13 -200 -19 -205 -4 -4 -204 28 -261 43 -58 14 -76 26 -71 48 2 6 1 8
-1 4 -10 -18 -22 -6 -20 20 1 15 -2 41 -6 57 l-7 30 17 -32 c9 -18 20 -33 24
-33 4 0 11 26 17 58 7 34 10 42 8 20 -1 -21 2 -38 7 -38 6 0 8 23 5 53 -6 63
3 97 13 49 4 -18 14 -39 23 -45z"/>
<path d="M5210 7707 c0 -4 18 -32 40 -61 87 -115 125 -275 145 -607 7 -124 13
-232 13 -240 -4 -59 7 -59 12 1 14 145 10 247 -19 448 -28 194 -31 208 -74
295 -38 80 -115 187 -117 164z"/>
<path d="M4345 7672 c-6 -4 -32 -14 -60 -20 -202 -51 -389 -159 -554 -322 -51
-50 -91 -93 -88 -96 3 -3 -6 -17 -19 -31 -13 -14 -24 -30 -24 -34 0 -5 16 8
35 28 19 20 33 38 31 40 -11 11 156 148 301 247 129 88 185 115 303 145 101
26 331 39 400 23 56 -14 64 -7 17 13 -27 11 -75 15 -185 15 -81 0 -152 -4
-157 -8z"/>
<path d="M5330 7585 c0 -3 12 -34 27 -68 14 -34 30 -87 34 -117 4 -30 15 -101
24 -158 40 -261 85 -667 85 -782 1 -67 20 -204 31 -214 2 -3 4 62 4 142 0 81
7 188 14 237 l14 90 19 -45 c10 -25 23 -54 28 -65 l11 -20 -6 20 c-4 11 -11
153 -16 315 -11 323 -5 448 31 584 12 43 19 80 16 83 -10 11 -77 -130 -100
-212 -20 -73 -23 -98 -16 -130 5 -22 9 -49 9 -60 -1 -11 -6 0 -12 25 l-10 45
-8 -40 c-4 -22 -9 -58 -10 -80 -1 -22 -3 -31 -5 -20 -33 156 -69 302 -80 323
-8 15 -14 32 -14 38 0 5 -6 16 -12 23 -7 6 -13 15 -14 19 -3 22 -27 72 -35 72
-5 0 -9 -2 -9 -5z"/>
<path d="M5260 7494 c0 -5 13 -48 30 -95 19 -55 35 -132 46 -220 16 -133 16
-175 -2 -504 -4 -80 -2 -126 9 -170 14 -58 15 -54 15 165 1 124 4 270 8 325 7
118 -22 316 -62 425 -24 62 -44 96 -44 74z"/>
<path d="M6325 7340 c-44 -5 -100 -15 -124 -21 -54 -15 -110 -70 -146 -142
-32 -67 -44 -186 -24 -243 14 -38 14 -36 19 83 l5 122 40 58 c60 87 113 110
281 123 84 7 151 8 190 1 69 -10 83 -7 28 8 -60 16 -181 20 -269 11z"/>
<path d="M3717 7107 c-20 -28 -61 -89 -91 -134 -32 -46 -85 -107 -123 -140
-137 -118 -185 -169 -251 -263 -37 -52 -72 -104 -78 -115 -6 -11 -22 -40 -36
-65 -13 -25 -28 -54 -31 -64 -24 -62 86 94 171 244 30 53 66 97 124 150 181
166 267 262 314 348 25 46 44 85 42 87 -2 3 -21 -19 -41 -48z"/>
<path d="M5865 7016 c-12 -42 1 -233 21 -296 9 -30 34 -89 55 -131 l40 -77 0
-146 c1 -80 5 -146 10 -146 8 0 11 14 29 129 5 35 12 66 16 70 3 3 4 -63 2
-147 -1 -83 -2 -152 -1 -152 0 0 11 17 23 38 18 29 23 53 24 112 1 124 -9 160
-81 277 -75 124 -96 192 -116 378 -11 93 -16 114 -22 91z"/>
<path d="M5237 6813 c-6 -53 -18 -102 -61 -253 -27 -92 -31 -196 -11 -286 19
-89 33 -120 64 -148 21 -19 21 -17 -3 35 -60 133 -57 312 10 514 31 94 42 195
22 195 -11 0 -17 -16 -21 -57z"/>
<path d="M4349 4852 c-109 -111 -188 -257 -215 -398 -23 -119 -22 -270 2 -347
l19 -59 1 154 c1 182 13 245 83 429 47 127 53 137 109 189 58 53 99 106 90
115 -2 2 -42 -35 -89 -83z"/>
</g>
</svg>
